<?xml version="1.0" encoding="utf-8"?>
<!-- Generator: Adobe Illustrator 16.0.4, SVG Export Plug-In . SVG Version: 6.00 Build 0)  -->
<!DOCTYPE svg PUBLIC "-//W3C//DTD SVG 1.1//EN" "http://www.w3.org/Graphics/SVG/1.1/DTD/svg11.dtd">
<svg version="1.1" id="Calque_1" xmlns="http://www.w3.org/2000/svg" xmlns:xlink="http://www.w3.org/1999/xlink" x="0px" y="0px"
	 width="343.533px" height="272px" viewBox="119.607 32.445 343.533 272" enable-background="new 119.607 32.445 343.533 272"
	 xml:space="preserve">
<g>
	<g>
		<g>
			<circle fill="#23272B" stroke="#23272B" stroke-miterlimit="10" cx="291.374" cy="168.445" r="114.546"/>
			<circle fill="none" stroke="#23272B" stroke-width="2" stroke-miterlimit="10" cx="291.373" cy="168.445" r="119.648"/>
		</g>
		<g>
			<path fill="#FFFFFF" d="M332.662,108.857c-3.059,0.078-5.756-1.568-7.17-4.053c-0.986,0.475-2.086,0.758-3.258,0.789
				c-4.424,0.11-8.102-3.386-8.209-7.81c-0.047-1.747,0.479-3.37,1.393-4.709c-2.002-1.411-3.348-3.711-3.414-6.353
				c-0.074-3.038,1.549-5.723,4.012-7.144c-0.732-1.174-1.18-2.547-1.219-4.03c-0.016-0.678,0.057-1.336,0.199-1.969
				c-6.672-3.548-14.271-5.562-22.336-5.562c-26.317,0-47.735,21.418-47.735,47.735c0,23.742,39.391,64.587,47.735,74.176
				c8.343-9.589,47.734-50.434,47.734-74.176c0-3.641-0.414-7.188-1.189-10.598C337.82,107.321,335.427,108.787,332.662,108.857z
				 M292.66,134.429c-10.295,0-18.679-8.342-18.679-18.678c0-10.294,8.384-18.68,18.679-18.68c10.294,0,18.678,8.386,18.678,18.68
				C311.338,126.044,302.954,134.429,292.66,134.429z"/>
			<path fill="#FFFFFF" d="M231.172,122.937c-0.555-1.106-1.409-1.552-2.516-1.131c-1.111,0.422-1.556,1.41-1.135,2.518l6.41,16.86
				c0.444,1.17-0.023,2.213-1.194,2.657l-0.088,0.034c-1.171,0.445-2.213-0.024-2.657-1.194l-6.408-16.86
				c-0.42-1.107-1.409-1.551-2.519-1.13c-1.109,0.421-1.554,1.409-1.132,2.517l6.407,16.86c0.444,1.17-0.023,2.212-1.193,2.658
				l-0.087,0.033c-1.171,0.445-2.213-0.023-2.658-1.194l-6.407-16.861c-0.421-1.107-1.409-1.551-2.52-1.13
				c-1.108,0.42-1.449,1.32-1.131,2.518l5.904,20.801c1.605,5.657,5.514,9.265,11.139,8.527c0.658-0.086,1.283,0.11,1.541,0.932
				l13.983,44.543c1.19,3.796,4.117,4.961,7.963,3.5c3.845-1.462,5.258-4.273,3.629-7.905L237.378,157.9
				c-0.354-0.787-0.017-1.349,0.532-1.721c4.694-3.185,5.22-8.477,2.663-13.771L231.172,122.937z"/>
			<path fill="#FFFFFF" d="M369.105,127.199c-9.77-0.79-18.158,9.358-26.4,30.116c-4.436,11.167,5.395,7.574,1.355,15.375
				l-14.84,28.661c-1.496,2.893-0.725,6.106,3.531,7.796c3.871,1.537,6.057-0.647,7.203-3.533l30.334-76.353
				C370.914,127.69,370.158,127.283,369.105,127.199z"/>
		</g>
	</g>
	<g>
		<path fill="#FFFFFF" stroke="#23272B" stroke-width="3" stroke-miterlimit="10" d="M446.593,206.667
			c-13.598-58.284-275.517,32.063-318.044-23.779l27.08,47.554l-19.087,13.006c13.21,58.34,274.009-31.553,317.658,23.836
			l-26.4-45.605L446.593,206.667z"/>
		<g>
			<path fill="#23272B" d="M169.739,236.724c-1.133-0.762-1.996-1.815-2.588-3.159c-0.592-1.345-0.815-2.914-0.667-4.708
				c0.207-2.524,0.85-4.712,1.93-6.564c1.08-1.851,2.456-3.235,4.128-4.151c1.671-0.917,3.471-1.296,5.398-1.139
				c1.478,0.122,2.784,0.563,3.917,1.326c1.133,0.762,1.997,1.814,2.588,3.158c0.592,1.345,0.815,2.915,0.668,4.708
				c-0.207,2.526-0.851,4.714-1.93,6.565c-1.08,1.852-2.456,3.236-4.128,4.152c-1.672,0.917-3.471,1.295-5.398,1.137
				C172.177,237.927,170.872,237.485,169.739,236.724z M177.67,234.213c1.054-0.716,1.904-1.763,2.552-3.139
				c0.648-1.376,1.045-2.962,1.193-4.757c0.161-1.976-0.131-3.51-0.878-4.599c-0.748-1.089-1.776-1.688-3.089-1.795
				c-1.279-0.104-2.441,0.198-3.486,0.905c-1.044,0.709-1.899,1.751-2.563,3.126c-0.665,1.376-1.071,2.969-1.22,4.78
				c-0.162,1.977,0.13,3.51,0.877,4.6c0.747,1.089,1.777,1.688,3.089,1.796C175.442,235.235,176.616,234.929,177.67,234.213z"/>
			<path fill="#23272B" d="M187.246,237.636c-0.48-0.688-0.724-1.549-0.731-2.582c-0.01-1.25,0.065-2.396,0.225-3.439
				c0.159-1.044,0.425-2.149,0.801-3.319c0.163-0.501,0.394-0.86,0.691-1.08c0.299-0.219,0.773-0.331,1.423-0.335
				c0.367-0.003,0.621,0.053,0.764,0.169c0.142,0.116,0.214,0.29,0.216,0.523c0.001,0.133-0.088,0.584-0.265,1.352
				c-0.162,0.618-0.292,1.177-0.388,1.677c-0.321,1.753-0.479,2.92-0.475,3.504c0.003,0.351,0.046,0.597,0.131,0.737
				c0.084,0.142,0.218,0.211,0.401,0.21c0.25-0.002,0.561-0.255,0.932-0.758c0.371-0.502,0.766-1.264,1.183-2.283
				c0.418-1.02,0.821-2.273,1.21-3.759c0.129-0.501,0.332-0.861,0.605-1.08c0.272-0.218,0.685-0.33,1.235-0.334
				c0.383-0.003,0.649,0.042,0.8,0.131c0.151,0.091,0.228,0.261,0.229,0.511c0.002,0.417-0.197,1.56-0.6,3.43
				c-0.451,2.136-0.674,3.454-0.671,3.954c0.003,0.317,0.071,0.562,0.206,0.736c0.135,0.174,0.31,0.26,0.527,0.259
				c0.333-0.002,0.728-0.208,1.183-0.621c0.455-0.411,1.063-1.079,1.823-2.001c0.198-0.233,0.422-0.353,0.672-0.355
				c0.217,0,0.389,0.098,0.515,0.296c0.126,0.199,0.19,0.474,0.193,0.824c0.005,0.667-0.149,1.185-0.463,1.554
				c-0.71,0.889-1.476,1.62-2.297,2.191c-0.821,0.573-1.756,0.863-2.806,0.871c-0.8,0.006-1.39-0.297-1.77-0.911
				c-0.379-0.614-0.573-1.479-0.581-2.596c-0.275,1.135-0.694,2.009-1.256,2.621c-0.562,0.613-1.168,0.921-1.819,0.926
				C188.342,238.665,187.727,238.324,187.246,237.636z M191.865,224.79l-3.256-4.127c-0.37-0.463-0.557-0.929-0.56-1.396
				c-0.004-0.466,0.156-0.851,0.479-1.152c0.323-0.303,0.692-0.457,1.109-0.459c0.284-0.002,0.551,0.08,0.802,0.245
				c0.251,0.165,0.453,0.413,0.605,0.745l2.363,5.183c0.067,0.15,0.102,0.308,0.104,0.474c0.002,0.251-0.084,0.463-0.258,0.641
				c-0.174,0.176-0.377,0.265-0.61,0.266C192.343,225.209,192.083,225.071,191.865,224.79z"/>
			<path fill="#23272B" d="M216.582,232.165c0.136,0.191,0.215,0.462,0.235,0.812c0.039,0.665-0.09,1.189-0.384,1.574
				c-0.572,0.784-1.401,1.526-2.487,2.223c-1.086,0.698-2.271,1.084-3.551,1.158c-1.747,0.102-3.132-0.292-4.151-1.186
				c-1.021-0.892-1.578-2.161-1.674-3.809c-0.067-1.148,0.112-2.23,0.537-3.25c0.425-1.018,1.048-1.842,1.872-2.475
				s1.775-0.979,2.857-1.042c0.965-0.056,1.754,0.185,2.371,0.725c0.616,0.541,0.953,1.3,1.01,2.283
				c0.067,1.148-0.288,2.158-1.063,3.029c-0.775,0.873-2.131,1.606-4.066,2.203c0.46,0.741,1.273,1.078,2.438,1.011
				c0.748-0.045,1.586-0.356,2.513-0.936c0.926-0.58,1.714-1.314,2.363-2.204c0.187-0.245,0.405-0.374,0.654-0.388
				C216.269,231.882,216.446,231.972,216.582,232.165z M208.055,229.806c-0.383,0.74-0.545,1.618-0.485,2.632l0.002,0.05
				c0.968-0.29,1.722-0.684,2.261-1.183c0.538-0.499,0.79-1.056,0.753-1.672c-0.018-0.315-0.12-0.565-0.306-0.746
				c-0.186-0.181-0.429-0.263-0.729-0.246C208.937,228.678,208.438,229.065,208.055,229.806z"/>
			<path fill="#23272B" d="M217.616,237.389c-0.487-0.363-0.75-0.793-0.789-1.292c-0.033-0.433,0.096-0.818,0.387-1.159
				c0.292-0.338,0.745-0.533,1.36-0.582c0.216-0.016,0.471-0.014,0.765,0.004c0.294,0.021,0.516,0.032,0.667,0.037
				c-0.05-0.431-0.177-0.83-0.381-1.199c-0.204-0.369-0.453-0.722-0.746-1.059c-0.293-0.337-0.566-0.629-0.819-0.877
				c-0.44,1.021-0.888,1.874-1.345,2.561c-0.458,0.687-0.962,1.344-1.516,1.972c-0.275,0.322-0.58,0.496-0.912,0.521
				c-0.266,0.022-0.49-0.058-0.671-0.236c-0.18-0.179-0.281-0.408-0.303-0.691c-0.026-0.333,0.066-0.649,0.277-0.95l0.293-0.423
				c0.827-1.2,1.446-2.184,1.854-2.951c0.246-0.503,0.528-1.172,0.849-2.009c0.319-0.835,0.629-1.699,0.929-2.59
				c0.259-0.757,0.888-1.172,1.885-1.249c0.465-0.035,0.792-0.019,0.981,0.049c0.189,0.069,0.291,0.196,0.305,0.378
				c0.007,0.1-0.014,0.26-0.063,0.481s-0.125,0.445-0.224,0.669c-0.253,0.621-0.363,1.14-0.332,1.555
				c0.02,0.25,0.128,0.517,0.325,0.802c0.198,0.285,0.497,0.639,0.896,1.06c0.585,0.657,1.035,1.22,1.346,1.689
				c0.312,0.469,0.491,0.995,0.535,1.575c0.013,0.167,0.015,0.4,0.004,0.702c0.79-0.378,1.681-1.291,2.673-2.738
				c0.181-0.248,0.397-0.382,0.646-0.401c0.216-0.017,0.395,0.07,0.534,0.26c0.14,0.189,0.224,0.459,0.25,0.809
				c0.048,0.631-0.069,1.159-0.354,1.582c-0.752,1.093-1.491,1.857-2.219,2.289c-0.728,0.433-1.646,0.707-2.757,0.827
				c-0.622,0.616-1.389,0.959-2.303,1.029C218.781,237.901,218.104,237.753,217.616,237.389z"/>
			<path fill="#23272B" d="M236.669,230.374c0.143,0.189,0.23,0.457,0.262,0.805c0.06,0.665-0.051,1.193-0.333,1.587
				c-0.634,0.944-1.348,1.738-2.144,2.379c-0.795,0.642-1.741,1.011-2.836,1.111c-3.386,0.309-5.295-1.919-5.729-6.684
				c-0.066-0.731-0.108-1.472-0.127-2.223l-0.971,0.089c-0.498,0.045-0.842-0.016-1.033-0.183c-0.191-0.166-0.304-0.45-0.341-0.847
				c-0.084-0.93,0.247-1.429,0.994-1.496l1.419-0.129c0.117-1.852,0.396-3.559,0.839-5.123c0.443-1.563,1.036-2.831,1.775-3.801
				c0.74-0.971,1.583-1.5,2.53-1.586c0.697-0.063,1.273,0.194,1.727,0.772c0.455,0.578,0.724,1.332,0.809,2.261
				c0.234,2.572-0.642,4.912-2.625,7.017l2.789-0.254c0.265-0.024,0.461,0.018,0.588,0.122c0.126,0.106,0.205,0.317,0.233,0.631
				c0.104,1.146-0.782,1.805-2.657,1.975l-3.038,0.276c0.042,0.833,0.085,1.482,0.127,1.947c0.157,1.727,0.47,2.918,0.94,3.58
				c0.47,0.66,1.145,0.95,2.024,0.87c0.714-0.066,1.325-0.339,1.833-0.82c0.509-0.481,1.097-1.188,1.766-2.118
				c0.178-0.251,0.391-0.388,0.641-0.41C236.347,230.101,236.527,230.186,236.669,230.374z M229.771,217.734
				c-0.25,0.65-0.462,1.54-0.636,2.668c-0.173,1.129-0.291,2.374-0.351,3.734c0.902-0.935,1.55-1.952,1.944-3.051
				c0.394-1.098,0.552-2.08,0.473-2.942c-0.089-0.979-0.317-1.453-0.682-1.42C230.271,216.747,230.021,217.083,229.771,217.734z"/>
			<path fill="#23272B" d="M236.445,229.134c-0.268-0.24-0.426-0.601-0.474-1.082c-0.047-0.448,0.032-0.792,0.234-1.029
				c0.202-0.239,0.516-0.396,0.944-0.474l5.048-1.018c0.411-0.076,0.741-0.004,0.989,0.213c0.248,0.218,0.396,0.559,0.444,1.022
				c0.091,0.895-0.29,1.429-1.144,1.6l-5.048,1.019C237.044,229.459,236.713,229.375,236.445,229.134z"/>
			<path fill="#23272B" d="M247.329,233.271c-1.003-0.821-1.587-1.986-1.751-3.494c-0.146-1.341-0.009-2.547,0.411-3.616
				c0.42-1.069,1.022-1.922,1.809-2.561c0.785-0.639,1.641-1.009,2.569-1.109c0.911-0.1,1.648,0.092,2.213,0.575
				c0.564,0.484,0.893,1.148,0.984,1.993c0.076,0.695-0.013,1.3-0.267,1.814c-0.255,0.514-0.63,0.799-1.127,0.852
				c-0.314,0.035-0.576-0.012-0.782-0.141c-0.207-0.128-0.324-0.326-0.354-0.591c-0.013-0.115-0.01-0.25,0.006-0.402
				c0.017-0.153,0.03-0.264,0.04-0.332c0.056-0.257,0.072-0.494,0.048-0.71c-0.023-0.214-0.095-0.375-0.215-0.478
				c-0.121-0.105-0.28-0.146-0.479-0.124c-0.381,0.042-0.719,0.25-1.013,0.625c-0.295,0.376-0.51,0.864-0.646,1.466
				c-0.135,0.602-0.166,1.25-0.09,1.946c0.21,1.922,1.151,2.792,2.825,2.608c0.679-0.073,1.387-0.38,2.125-0.922
				c0.737-0.542,1.438-1.309,2.1-2.303c0.174-0.254,0.385-0.395,0.633-0.422c0.215-0.023,0.396,0.057,0.542,0.244
				c0.146,0.185,0.238,0.452,0.276,0.799c0.069,0.629-0.033,1.161-0.304,1.593c-0.674,1.046-1.526,1.888-2.554,2.528
				c-1.029,0.641-2.048,1.016-3.059,1.126C249.645,234.415,248.332,234.091,247.329,233.271z"/>
			<path fill="#23272B" d="M266.619,227.073c0.146,0.185,0.239,0.451,0.279,0.798c0.076,0.663-0.024,1.194-0.297,1.595
				c-0.528,0.814-1.315,1.6-2.361,2.356c-1.046,0.756-2.208,1.206-3.482,1.352c-1.739,0.197-3.143-0.121-4.21-0.957
				c-1.068-0.834-1.695-2.072-1.88-3.71c-0.13-1.143-0.012-2.234,0.357-3.274c0.368-1.041,0.946-1.898,1.733-2.576
				c0.788-0.675,1.719-1.075,2.796-1.198c0.96-0.108,1.762,0.089,2.407,0.595c0.645,0.504,1.022,1.247,1.134,2.223
				c0.129,1.143-0.169,2.171-0.896,3.083c-0.727,0.914-2.04,1.722-3.939,2.424c0.5,0.715,1.33,1.006,2.49,0.875
				c0.745-0.085,1.564-0.442,2.457-1.071c0.893-0.63,1.639-1.407,2.239-2.33c0.172-0.255,0.383-0.396,0.63-0.424
				C266.291,226.807,266.472,226.888,266.619,227.073z M257.975,225.187c-0.341,0.759-0.454,1.645-0.339,2.655l0.005,0.05
				c0.951-0.343,1.682-0.778,2.192-1.306c0.51-0.528,0.731-1.098,0.661-1.71c-0.036-0.314-0.151-0.557-0.347-0.729
				c-0.195-0.171-0.442-0.238-0.74-0.205C258.794,224.012,258.317,224.426,257.975,225.187z"/>
			<path fill="#23272B" d="M285.984,226.05c0.076,0.645-0.01,1.168-0.257,1.566c-0.247,0.397-0.619,0.626-1.115,0.685l-0.922,0.082
				c-0.167,0.004-0.409,0.023-0.723,0.061c0.177,0.935,0.321,1.874,0.431,2.818c0.294,2.5,0.223,4.714-0.213,6.646
				c-0.436,1.93-1.349,2.978-2.74,3.141c-0.944,0.111-1.724-0.347-2.338-1.374c-0.616-1.026-1.016-2.317-1.198-3.874
				c-0.228-1.937-0.237-3.873-0.028-5.811c-0.462,0.927-1.147,1.443-2.058,1.55c-0.911,0.107-1.713-0.185-2.407-0.875
				c-0.694-0.689-1.111-1.64-1.253-2.848c-0.153-1.308,0.011-2.586,0.493-3.833c0.482-1.249,1.199-2.293,2.149-3.136
				c0.949-0.841,2.012-1.331,3.188-1.468c0.397-0.047,0.719,0.049,0.965,0.289c0.087-0.547,0.269-0.928,0.545-1.147
				c0.276-0.216,0.679-0.356,1.209-0.418c0.562-0.066,0.949-0.027,1.159,0.116c0.21,0.143,0.325,0.373,0.345,0.688
				c0.023,0.199-0.026,0.67-0.147,1.416c-0.123,0.744-0.204,1.236-0.243,1.476c-0.156,0.958-0.321,2.017-0.495,3.179
				s-0.298,2.217-0.371,3.165c-0.219,2.71-0.208,5.083,0.031,7.12c0.09,0.761,0.229,1.403,0.416,1.928
				c0.187,0.522,0.38,0.772,0.579,0.75c0.166-0.019,0.311-0.322,0.435-0.906c0.124-0.585,0.197-1.358,0.219-2.316
				c0.021-0.959-0.03-1.97-0.154-3.028c-0.148-1.259-0.337-2.369-0.568-3.332c-0.026-0.082-0.05-0.212-0.071-0.395
				c-0.065-0.546,0.019-1.018,0.249-1.414s0.594-0.624,1.09-0.682c0.066-0.008,0.692-0.106,1.878-0.296
				c0.49-0.108,0.91-0.182,1.257-0.224C285.703,225.302,285.923,225.537,285.984,226.05z M276.531,228.079
				c0.292-0.512,0.474-1.109,0.545-1.789l0.536-4.645c-0.727,0.103-1.363,0.437-1.909,1.005c-0.545,0.568-0.949,1.281-1.208,2.144
				c-0.26,0.861-0.336,1.747-0.229,2.657c0.061,0.514,0.202,0.895,0.424,1.146c0.222,0.252,0.499,0.357,0.831,0.318
				C275.902,228.871,276.239,228.592,276.531,228.079z"/>
			<path fill="#23272B" d="M284.973,229.3c-0.552-0.631-0.888-1.46-1.008-2.487c-0.146-1.241-0.195-2.39-0.151-3.443
				c0.045-1.054,0.189-2.182,0.435-3.386c0.107-0.515,0.298-0.899,0.57-1.148c0.273-0.25,0.732-0.413,1.378-0.489
				c0.364-0.043,0.624-0.014,0.778,0.084c0.154,0.101,0.246,0.266,0.272,0.498c0.016,0.131-0.023,0.59-0.116,1.373
				c-0.094,0.631-0.162,1.201-0.203,1.709c-0.128,1.777-0.157,2.955-0.089,3.534c0.041,0.348,0.11,0.588,0.209,0.719
				c0.099,0.131,0.24,0.186,0.422,0.165c0.249-0.029,0.529-0.314,0.844-0.855c0.314-0.539,0.624-1.339,0.928-2.398
				c0.303-1.059,0.569-2.349,0.793-3.868c0.074-0.512,0.236-0.892,0.484-1.139c0.248-0.247,0.645-0.402,1.191-0.467
				c0.38-0.044,0.651-0.03,0.811,0.044c0.159,0.074,0.254,0.234,0.283,0.483c0.048,0.413-0.027,1.571-0.224,3.475
				c-0.216,2.173-0.294,3.507-0.236,4.003c0.037,0.316,0.131,0.551,0.284,0.71c0.153,0.158,0.337,0.224,0.552,0.2
				c0.332-0.04,0.7-0.288,1.108-0.747s0.939-1.188,1.595-2.187c0.172-0.255,0.381-0.398,0.63-0.426
				c0.215-0.025,0.396,0.054,0.544,0.238c0.147,0.184,0.241,0.451,0.281,0.798c0.078,0.662-0.02,1.194-0.292,1.595
				c-0.609,0.961-1.29,1.771-2.043,2.429c-0.754,0.659-1.652,1.048-2.695,1.17c-0.794,0.094-1.414-0.145-1.858-0.713
				c-0.444-0.57-0.73-1.408-0.86-2.518c-0.15,1.159-0.471,2.072-0.963,2.743c-0.493,0.67-1.061,1.042-1.707,1.118
				C286.174,230.205,285.525,229.933,284.973,229.3z"/>
			<path fill="#23272B" d="M296.057,213.704c-0.235-0.141-0.372-0.393-0.415-0.757c-0.017-0.15-0.012-0.326,0.014-0.531
				c0.095-0.782,0.15-1.502,0.167-2.157c0.017-0.657-0.02-1.382-0.111-2.177c-0.095-0.828,0.026-1.488,0.364-1.98
				c0.337-0.491,0.812-0.772,1.425-0.843c0.596-0.069,1.066,0.041,1.41,0.328c0.344,0.288,0.547,0.705,0.609,1.251
				c0.066,0.58-0.02,1.37-0.256,2.371c-0.238,1-0.553,1.984-0.944,2.952c-0.261,0.651-0.475,1.086-0.643,1.307
				c-0.168,0.221-0.409,0.349-0.723,0.385C296.59,213.893,296.291,213.844,296.057,213.704z"/>
			<path fill="#23272B" d="M313.534,219.559c0.141,0.202,0.23,0.469,0.266,0.8c0.09,0.795-0.098,1.295-0.562,1.498
				c-0.954,0.458-2.025,0.779-3.212,0.962c-0.16,1.427-0.656,2.611-1.49,3.55c-0.834,0.941-1.838,1.477-3.014,1.608
				c-0.994,0.111-1.87-0.034-2.628-0.435c-0.759-0.402-1.364-0.979-1.817-1.733c-0.453-0.755-0.731-1.596-0.835-2.524
				c-0.142-1.258-0.026-2.407,0.345-3.446c0.369-1.04,0.945-1.884,1.729-2.533c0.781-0.649,1.686-1.033,2.713-1.146
				c1.26-0.142,2.322,0.18,3.189,0.963c0.868,0.783,1.439,1.805,1.715,3.065c0.773-0.137,1.682-0.405,2.727-0.808
				c0.129-0.048,0.243-0.077,0.342-0.088C313.217,219.267,313.395,219.357,313.534,219.559z M306.732,224.521
				c0.341-0.474,0.532-1.125,0.574-1.951c-0.553-0.291-0.997-0.702-1.333-1.235c-0.336-0.532-0.541-1.113-0.611-1.743
				c-0.029-0.265-0.033-0.533-0.014-0.803l-0.125,0.014c-0.662,0.073-1.178,0.454-1.545,1.14c-0.367,0.688-0.486,1.61-0.355,2.77
				c0.102,0.912,0.357,1.586,0.768,2.026c0.409,0.441,0.854,0.634,1.335,0.581C305.956,225.262,306.391,224.995,306.732,224.521z"/>
			<path fill="#23272B" d="M312.719,226.17c-0.326-0.636-0.566-1.683-0.721-3.142c-0.227-2.154-0.135-4.233,0.273-6.238
				c0.1-0.496,0.307-0.874,0.623-1.134c0.315-0.259,0.781-0.421,1.395-0.485c0.33-0.035,0.566-0.019,0.709,0.051
				c0.141,0.07,0.224,0.22,0.248,0.452c0.027,0.266-0.033,0.875-0.184,1.828c-0.097,0.681-0.168,1.275-0.215,1.783
				s-0.066,1.129-0.055,1.867c0.396-1.482,0.887-2.708,1.473-3.675c0.585-0.967,1.186-1.674,1.8-2.125
				c0.614-0.45,1.195-0.704,1.743-0.761c1.076-0.114,1.672,0.368,1.785,1.446c0.068,0.646,0.008,1.834-0.178,3.563
				c-0.162,1.476-0.22,2.444-0.171,2.909c0.069,0.663,0.345,0.969,0.825,0.919c0.332-0.036,0.703-0.28,1.117-0.734
				c0.413-0.454,0.953-1.176,1.619-2.169c0.175-0.253,0.387-0.393,0.635-0.419c0.215-0.022,0.396,0.059,0.541,0.246
				c0.146,0.185,0.236,0.452,0.273,0.8c0.068,0.664-0.034,1.194-0.311,1.591c-0.621,0.955-1.311,1.756-2.072,2.406
				c-0.762,0.649-1.664,1.03-2.708,1.14c-0.845,0.088-1.509-0.088-1.991-0.531c-0.482-0.444-0.773-1.129-0.871-2.058
				c-0.049-0.465-0.02-1.305,0.087-2.523c0.106-1.066,0.138-1.799,0.095-2.196c-0.027-0.265-0.133-0.389-0.314-0.369
				c-0.217,0.022-0.489,0.332-0.82,0.928c-0.33,0.597-0.65,1.372-0.961,2.326c-0.311,0.955-0.537,1.951-0.679,2.987
				c-0.101,0.798-0.257,1.347-0.468,1.646c-0.211,0.299-0.574,0.476-1.088,0.529C313.524,227.091,313.046,226.807,312.719,226.17z"
				/>
			<path fill="#23272B" d="M331.557,224.235c-0.314-0.643-0.533-1.694-0.658-3.156c-0.184-2.158-0.051-4.236,0.398-6.231
				c0.107-0.494,0.322-0.868,0.645-1.122c0.32-0.253,0.789-0.406,1.404-0.458c0.332-0.028,0.566-0.007,0.707,0.065
				c0.141,0.071,0.221,0.224,0.24,0.457c0.021,0.265-0.051,0.874-0.221,1.825c-0.111,0.678-0.193,1.267-0.252,1.766
				c-0.059,0.498-0.09,1.116-0.094,1.852c0.338-1.334,0.781-2.475,1.328-3.425s1.129-1.672,1.748-2.168
				c0.617-0.497,1.217-0.769,1.799-0.818c0.58-0.05,1.002,0.049,1.268,0.293c0.262,0.245,0.418,0.642,0.465,1.19
				c0.045,0.532-0.031,1.508-0.229,2.93c-0.082,0.609-0.135,1.065-0.16,1.368c0.656-2.113,1.453-3.678,2.387-4.693
				c0.934-1.017,1.84-1.562,2.721-1.637c1.08-0.092,1.666,0.401,1.756,1.481c0.057,0.648-0.027,1.834-0.248,3.56
				c-0.193,1.471-0.27,2.439-0.229,2.904c0.055,0.664,0.324,0.977,0.807,0.935c0.33-0.028,0.709-0.265,1.131-0.71
				c0.422-0.446,0.977-1.158,1.662-2.137c0.18-0.25,0.395-0.385,0.643-0.406c0.217-0.018,0.395,0.067,0.537,0.256
				c0.141,0.189,0.227,0.458,0.256,0.807c0.057,0.664-0.057,1.192-0.342,1.584c-0.639,0.941-1.346,1.729-2.119,2.363
				c-0.775,0.635-1.686,0.996-2.73,1.085c-0.848,0.073-1.508-0.117-1.98-0.571c-0.475-0.454-0.75-1.145-0.83-2.075
				c-0.039-0.465,0.006-1.305,0.139-2.521c0.125-1.064,0.172-1.796,0.139-2.194c-0.023-0.266-0.125-0.392-0.309-0.375
				c-0.215,0.018-0.498,0.323-0.85,0.912c-0.352,0.591-0.688,1.36-1.01,2.307c-0.32,0.947-0.562,1.938-0.725,2.971
				c-0.115,0.813-0.281,1.364-0.5,1.649c-0.217,0.286-0.594,0.452-1.125,0.497c-0.547,0.047-0.98-0.18-1.299-0.679
				c-0.318-0.5-0.51-1.124-0.572-1.871c-0.055-0.63-0.049-1.551,0.016-2.761c0.043-1.074,0.049-1.776,0.021-2.109
				c-0.023-0.266-0.127-0.392-0.309-0.376c-0.25,0.022-0.539,0.348-0.871,0.978c-0.33,0.63-0.635,1.426-0.914,2.386
				c-0.277,0.961-0.486,1.898-0.625,2.813c-0.117,0.797-0.283,1.342-0.502,1.636c-0.217,0.295-0.582,0.463-1.098,0.507
				C332.343,225.172,331.87,224.876,331.557,224.235z"/>
			<path fill="#23272B" d="M350.178,222.591c-0.662-0.71-1.033-1.672-1.109-2.886c-0.086-1.33,0.143-2.61,0.682-3.838
				c0.541-1.228,1.299-2.238,2.275-3.026c0.979-0.788,2.039-1.218,3.188-1.292c0.365-0.022,0.615,0.032,0.75,0.166
				c0.133,0.133,0.252,0.381,0.359,0.742c0.346-0.089,0.709-0.146,1.092-0.169c0.814-0.052,1.24,0.213,1.277,0.795
				c0.023,0.35-0.049,1.188-0.215,2.519c-0.262,1.937-0.369,3.279-0.32,4.029c0.016,0.249,0.09,0.444,0.225,0.586
				c0.135,0.141,0.301,0.206,0.502,0.194c0.314-0.02,0.686-0.248,1.107-0.685c0.424-0.435,0.988-1.135,1.695-2.1
				c0.186-0.245,0.402-0.375,0.652-0.393c0.215-0.013,0.393,0.076,0.529,0.268c0.139,0.191,0.219,0.462,0.24,0.811
				c0.043,0.666-0.084,1.19-0.375,1.577c-0.629,0.891-1.307,1.653-2.035,2.283c-0.729,0.631-1.449,0.969-2.164,1.015
				c-0.551,0.035-1.064-0.12-1.545-0.466c-0.482-0.345-0.859-0.834-1.135-1.469c-0.775,1.453-1.82,2.221-3.135,2.304
				C351.688,223.622,350.841,223.299,350.178,222.591z M354.464,220.264c0.307-0.454,0.51-1.043,0.615-1.769l0.631-4.649
				c-0.697,0.061-1.326,0.364-1.883,0.908c-0.559,0.545-0.986,1.245-1.283,2.098c-0.295,0.855-0.414,1.748-0.355,2.679
				c0.033,0.515,0.16,0.891,0.385,1.127s0.52,0.343,0.885,0.32C353.825,220.956,354.159,220.717,354.464,220.264z"/>
			<path fill="#23272B" d="M361.663,222.012c-0.285-0.656-0.455-1.716-0.516-3.183c-0.086-2.164,0.139-4.233,0.676-6.207
				c0.131-0.489,0.361-0.853,0.693-1.092c0.334-0.238,0.807-0.369,1.424-0.395c0.332-0.013,0.568,0.02,0.705,0.097
				c0.135,0.078,0.209,0.233,0.219,0.467c0.01,0.266-0.09,0.871-0.303,1.813c-0.139,0.673-0.25,1.26-0.328,1.765
				c-0.08,0.504-0.139,1.123-0.176,1.859c0.49-1.455,1.061-2.646,1.707-3.572c0.646-0.928,1.291-1.595,1.934-2.004
				c0.643-0.41,1.238-0.626,1.787-0.647c1.082-0.043,1.646,0.475,1.689,1.558c0.025,0.649-0.109,1.831-0.408,3.544
				c-0.258,1.461-0.377,2.426-0.359,2.892c0.027,0.666,0.283,0.99,0.766,0.97c0.334-0.013,0.721-0.233,1.162-0.66
				c0.441-0.426,1.027-1.113,1.756-2.06c0.191-0.241,0.41-0.367,0.66-0.377c0.217-0.008,0.393,0.085,0.525,0.279
				c0.133,0.195,0.205,0.468,0.219,0.817c0.027,0.667-0.109,1.189-0.41,1.567c-0.682,0.912-1.422,1.667-2.225,2.266
				c-0.801,0.6-1.727,0.92-2.775,0.963c-0.85,0.035-1.5-0.185-1.953-0.66c-0.453-0.473-0.697-1.176-0.736-2.109
				c-0.018-0.466,0.064-1.304,0.25-2.512c0.174-1.058,0.254-1.787,0.236-2.186c-0.01-0.267-0.107-0.397-0.291-0.389
				c-0.215,0.008-0.508,0.299-0.877,0.873c-0.369,0.574-0.738,1.327-1.111,2.259c-0.371,0.933-0.66,1.913-0.869,2.937
				c-0.152,0.791-0.342,1.328-0.572,1.612c-0.23,0.285-0.605,0.438-1.121,0.458C362.407,222.983,361.948,222.667,361.663,222.012z"
				/>
			<path fill="#23272B" d="M386.784,217.106c0.127,0.208,0.191,0.47,0.193,0.787c0.006,0.383-0.051,0.684-0.166,0.901
				c-0.115,0.218-0.295,0.411-0.545,0.58c-1.424,0.979-2.467,1.706-3.131,2.178l-1.59,1.089c-0.602,3.457-1.406,6.177-2.414,8.161
				c-1.006,1.984-2.301,2.984-3.885,2.998c-0.85,0.007-1.543-0.248-2.082-0.769c-0.539-0.52-0.811-1.205-0.818-2.055
				c-0.012-1.184,0.445-2.459,1.365-3.825c0.922-1.367,2.656-3.054,5.205-5.061l0.141-0.976c-0.279,0.452-0.646,0.802-1.104,1.047
				c-0.455,0.246-0.908,0.37-1.359,0.375c-1.033,0.009-1.861-0.358-2.484-1.103c-0.623-0.744-0.941-1.724-0.951-2.94
				c-0.012-1.333,0.283-2.6,0.891-3.797c0.605-1.197,1.418-2.163,2.436-2.897c1.02-0.734,2.104-1.106,3.252-1.117
				c0.367-0.003,0.613,0.065,0.74,0.206c0.127,0.142,0.232,0.394,0.32,0.76c0.314-0.069,0.682-0.106,1.098-0.111
				c0.418-0.002,0.715,0.057,0.891,0.18c0.176,0.124,0.266,0.369,0.268,0.735c0.002,0.2-0.006,0.359-0.02,0.476
				c-0.062,0.518-0.26,1.827-0.59,3.931c-0.062,0.4-0.129,0.837-0.201,1.313c-0.07,0.476-0.145,0.98-0.223,1.515
				c1.273-1.012,2.498-1.906,3.676-2.684c0.215-0.135,0.406-0.203,0.572-0.206C386.485,216.796,386.657,216.9,386.784,217.106z
				 M376.899,229.859c0.516-1.005,1.004-2.602,1.469-4.788c-1.273,1.111-2.189,2.111-2.748,2.999
				c-0.559,0.889-0.836,1.666-0.828,2.333c0.002,0.283,0.059,0.516,0.168,0.699c0.109,0.182,0.291,0.271,0.541,0.27
				C375.917,231.368,376.384,230.864,376.899,229.859z M378.565,219.293c0.348-0.47,0.59-1.138,0.732-2.006l0.762-4.282
				c-0.684,0.023-1.314,0.292-1.893,0.804c-0.58,0.515-1.039,1.188-1.383,2.025c-0.342,0.837-0.508,1.722-0.5,2.655
				c0.004,0.516,0.111,0.898,0.322,1.147c0.211,0.248,0.5,0.37,0.865,0.367C377.856,220,378.219,219.764,378.565,219.293z"/>
			<path fill="#23272B" d="M397.12,217.44c0.119,0.204,0.174,0.48,0.162,0.83c-0.018,0.667-0.191,1.179-0.518,1.537
				c-0.639,0.732-1.527,1.399-2.67,2c-1.143,0.601-2.355,0.884-3.639,0.848c-1.75-0.049-3.094-0.563-4.033-1.54
				c-0.938-0.977-1.385-2.29-1.338-3.94c0.033-1.149,0.305-2.212,0.814-3.19c0.512-0.978,1.205-1.746,2.08-2.305
				c0.873-0.559,1.852-0.823,2.936-0.793c0.965,0.028,1.732,0.337,2.299,0.929c0.568,0.591,0.838,1.377,0.809,2.36
				c-0.031,1.149-0.473,2.126-1.32,2.927c-0.848,0.801-2.262,1.416-4.24,1.844c0.395,0.778,1.174,1.184,2.34,1.216
				c0.75,0.022,1.611-0.217,2.584-0.714s1.822-1.161,2.545-1.991c0.207-0.228,0.436-0.337,0.686-0.332
				C396.831,217.132,397.001,217.238,397.12,217.44z M388.829,214.354c-0.445,0.705-0.684,1.566-0.711,2.581l-0.002,0.051
				c0.99-0.206,1.773-0.533,2.354-0.984c0.58-0.45,0.879-0.984,0.896-1.6c0.008-0.317-0.072-0.573-0.242-0.771
				c-0.168-0.196-0.404-0.298-0.703-0.307C389.803,213.308,389.272,213.651,388.829,214.354z"/>
			<path fill="#23272B" d="M402.327,222.753c-0.324-0.442-0.449-0.986-0.371-1.632c0.09-0.744,0.371-1.315,0.848-1.71
				c0.475-0.397,1.094-0.549,1.855-0.458c0.727,0.088,1.256,0.331,1.586,0.732c0.33,0.4,0.453,0.947,0.369,1.643
				c-0.09,0.761-0.379,1.343-0.863,1.748c-0.484,0.403-1.1,0.561-1.844,0.472C403.178,223.458,402.653,223.194,402.327,222.753z
				 M404.872,217.379c-0.162-0.196-0.209-0.49-0.146-0.885c0.191-1.035,0.551-1.932,1.078-2.692
				c0.527-0.758,1.355-1.583,2.486-2.471c1.055-0.814,1.826-1.52,2.318-2.114c0.49-0.596,0.777-1.242,0.861-1.937
				c0.137-1.142-0.432-1.789-1.707-1.941c-0.76-0.092-1.359,0.009-1.797,0.301s-0.689,0.694-0.75,1.207l-0.098,1.02
				c-0.033,0.283-0.166,0.514-0.396,0.696c-0.232,0.182-0.572,0.247-1.018,0.193c-0.514-0.061-0.889-0.261-1.125-0.6
				c-0.236-0.338-0.32-0.79-0.254-1.352c0.1-0.828,0.393-1.56,0.881-2.199c0.488-0.637,1.17-1.114,2.047-1.429
				c0.877-0.315,1.92-0.4,3.127-0.256c1.639,0.197,2.867,0.701,3.684,1.512c0.818,0.812,1.148,1.878,0.99,3.203
				c-0.125,1.042-0.504,1.955-1.135,2.735c-0.629,0.781-1.529,1.563-2.697,2.346c-0.984,0.654-1.738,1.193-2.258,1.618
				c-0.521,0.425-0.906,0.803-1.156,1.134c-0.25,0.332-0.469,0.72-0.656,1.167c-0.168,0.416-0.391,0.713-0.672,0.889
				c-0.281,0.176-0.588,0.244-0.918,0.204C405.262,217.69,405.034,217.575,404.872,217.379z"/>
		</g>
	</g>
</g>
</svg>
